<svg width="411" height="512" viewBox="0 0 411 512" fill="none" xmlns="http://www.w3.org/2000/svg">
<path d="M28.772 133.66H26.528L28.64 128.666H30.07L28.772 133.66ZM32.336 133.66H30.092L32.204 128.666H33.634L32.336 133.66ZM40.9134 144.154C39.9014 144.154 38.9921 143.978 38.1854 143.626C37.3934 143.259 36.7701 142.761 36.3154 142.13C35.8608 141.485 35.6261 140.744 35.6114 139.908H37.7454C37.8188 140.627 38.1121 141.235 38.6254 141.734C39.1534 142.218 39.9161 142.46 40.9134 142.46C41.8668 142.46 42.6148 142.225 43.1574 141.756C43.7148 141.272 43.9934 140.656 43.9934 139.908C43.9934 139.321 43.8321 138.845 43.5094 138.478C43.1868 138.111 42.7834 137.833 42.2994 137.642C41.8154 137.451 41.1628 137.246 40.3414 137.026C39.3294 136.762 38.5154 136.498 37.8994 136.234C37.2981 135.97 36.7774 135.559 36.3374 135.002C35.9121 134.43 35.6994 133.667 35.6994 132.714C35.6994 131.878 35.9121 131.137 36.3374 130.492C36.7628 129.847 37.3568 129.348 38.1194 128.996C38.8968 128.644 39.7841 128.468 40.7814 128.468C42.2188 128.468 43.3921 128.827 44.3014 129.546C45.2254 130.265 45.7461 131.218 45.8634 132.406H43.6634C43.5901 131.819 43.2821 131.306 42.7394 130.866C42.1968 130.411 41.4781 130.184 40.5834 130.184C39.7474 130.184 39.0654 130.404 38.5374 130.844C38.0094 131.269 37.7454 131.871 37.7454 132.648C37.7454 133.205 37.8994 133.66 38.2074 134.012C38.5301 134.364 38.9188 134.635 39.3734 134.826C39.8428 135.002 40.4954 135.207 41.3314 135.442C42.3434 135.721 43.1574 135.999 43.7734 136.278C44.3894 136.542 44.9174 136.96 45.3574 137.532C45.7974 138.089 46.0174 138.852 46.0174 139.82C46.0174 140.568 45.8194 141.272 45.4234 141.932C45.0274 142.592 44.4408 143.127 43.6634 143.538C42.8861 143.949 41.9694 144.154 40.9134 144.154ZM51.4055 133.594V140.7C51.4055 141.287 51.5302 141.705 51.7795 141.954C52.0289 142.189 52.4615 142.306 53.0775 142.306H54.5515V144H52.7475C51.6329 144 50.7969 143.743 50.2395 143.23C49.6822 142.717 49.4035 141.873 49.4035 140.7V133.594H47.8415V131.944H49.4035V128.908H51.4055V131.944H54.5515V133.594H51.4055ZM56.2292 137.928C56.2292 136.696 56.4785 135.618 56.9772 134.694C57.4759 133.755 58.1579 133.029 59.0232 132.516C59.9032 132.003 60.8785 131.746 61.9492 131.746C63.0052 131.746 63.9219 131.973 64.6992 132.428C65.4765 132.883 66.0559 133.455 66.4372 134.144V131.944H68.4612V144H66.4372V141.756C66.0412 142.46 65.4472 143.047 64.6552 143.516C63.8779 143.971 62.9685 144.198 61.9272 144.198C60.8565 144.198 59.8885 143.934 59.0232 143.406C58.1579 142.878 57.4759 142.137 56.9772 141.184C56.4785 140.231 56.2292 139.145 56.2292 137.928ZM66.4372 137.95C66.4372 137.041 66.2539 136.249 65.8872 135.574C65.5205 134.899 65.0219 134.386 64.3912 134.034C63.7752 133.667 63.0932 133.484 62.3452 133.484C61.5972 133.484 60.9152 133.66 60.2992 134.012C59.6832 134.364 59.1919 134.877 58.8252 135.552C58.4585 136.227 58.2752 137.019 58.2752 137.928C58.2752 138.852 58.4585 139.659 58.8252 140.348C59.1919 141.023 59.6832 141.543 60.2992 141.91C60.9152 142.262 61.5972 142.438 62.3452 142.438C63.0932 142.438 63.7752 142.262 64.3912 141.91C65.0219 141.543 65.5205 141.023 65.8872 140.348C66.2539 139.659 66.4372 138.859 66.4372 137.95ZM82.2284 131.944L74.9684 149.676H72.9004L75.2764 143.868L70.4144 131.944H72.6364L76.4204 141.712L80.1604 131.944H82.2284ZM96.0901 131.724C96.9994 131.724 97.8208 131.922 98.5541 132.318C99.2874 132.699 99.8594 133.279 100.27 134.056C100.695 134.833 100.908 135.779 100.908 136.894V144H98.9281V137.18C98.9281 135.977 98.6274 135.061 98.0261 134.43C97.4248 133.785 96.6034 133.462 95.5621 133.462C94.5061 133.462 93.6628 133.792 93.0321 134.452C92.4161 135.112 92.1081 136.073 92.1081 137.334V144H90.1061V127.72H92.1081V133.66C92.5041 133.044 93.0468 132.567 93.7361 132.23C94.4401 131.893 95.2248 131.724 96.0901 131.724ZM114.87 131.944V144H112.868V142.218C112.487 142.834 111.952 143.318 111.262 143.67C110.588 144.007 109.84 144.176 109.018 144.176C108.08 144.176 107.236 143.985 106.488 143.604C105.74 143.208 105.146 142.621 104.706 141.844C104.281 141.067 104.068 140.121 104.068 139.006V131.944H106.048V138.742C106.048 139.93 106.349 140.847 106.95 141.492C107.552 142.123 108.373 142.438 109.414 142.438C110.485 142.438 111.328 142.108 111.944 141.448C112.56 140.788 112.868 139.827 112.868 138.566V131.944H114.87ZM124.125 131.724C125.591 131.724 126.779 132.171 127.689 133.066C128.598 133.946 129.053 135.222 129.053 136.894V144H127.073V137.18C127.073 135.977 126.772 135.061 126.171 134.43C125.569 133.785 124.748 133.462 123.707 133.462C122.651 133.462 121.807 133.792 121.177 134.452C120.561 135.112 120.253 136.073 120.253 137.334V144H118.251V131.944H120.253V133.66C120.649 133.044 121.184 132.567 121.859 132.23C122.548 131.893 123.303 131.724 124.125 131.724ZM137.295 131.746C138.336 131.746 139.246 131.973 140.023 132.428C140.815 132.883 141.402 133.455 141.783 134.144V131.944H143.807V144.264C143.807 145.364 143.572 146.339 143.103 147.19C142.634 148.055 141.959 148.73 141.079 149.214C140.214 149.698 139.202 149.94 138.043 149.94C136.459 149.94 135.139 149.566 134.083 148.818C133.027 148.07 132.404 147.051 132.213 145.76H134.193C134.413 146.493 134.868 147.08 135.557 147.52C136.246 147.975 137.075 148.202 138.043 148.202C139.143 148.202 140.038 147.857 140.727 147.168C141.431 146.479 141.783 145.511 141.783 144.264V141.734C141.387 142.438 140.8 143.025 140.023 143.494C139.246 143.963 138.336 144.198 137.295 144.198C136.224 144.198 135.249 143.934 134.369 143.406C133.504 142.878 132.822 142.137 132.323 141.184C131.824 140.231 131.575 139.145 131.575 137.928C131.575 136.696 131.824 135.618 132.323 134.694C132.822 133.755 133.504 133.029 134.369 132.516C135.249 132.003 136.224 131.746 137.295 131.746ZM141.783 137.95C141.783 137.041 141.6 136.249 141.233 135.574C140.866 134.899 140.368 134.386 139.737 134.034C139.121 133.667 138.439 133.484 137.691 133.484C136.943 133.484 136.261 133.66 135.645 134.012C135.029 134.364 134.538 134.877 134.171 135.552C133.804 136.227 133.621 137.019 133.621 137.928C133.621 138.852 133.804 139.659 134.171 140.348C134.538 141.023 135.029 141.543 135.645 141.91C136.261 142.262 136.943 142.438 137.691 142.438C138.439 142.438 139.121 142.262 139.737 141.91C140.368 141.543 140.866 141.023 141.233 140.348C141.6 139.659 141.783 138.859 141.783 137.95ZM149.192 133.902C149.544 133.213 150.043 132.677 150.688 132.296C151.348 131.915 152.147 131.724 153.086 131.724V133.792H152.558C150.314 133.792 149.192 135.009 149.192 137.444V144H147.19V131.944H149.192V133.902ZM165.781 131.944L158.521 149.676H156.453L158.829 143.868L153.967 131.944H156.189L159.973 141.712L163.713 131.944H165.781ZM168.432 144.132C168.05 144.132 167.728 144 167.464 143.736C167.2 143.472 167.068 143.149 167.068 142.768C167.068 142.387 167.2 142.064 167.464 141.8C167.728 141.536 168.05 141.404 168.432 141.404C168.798 141.404 169.106 141.536 169.356 141.8C169.62 142.064 169.752 142.387 169.752 142.768C169.752 143.149 169.62 143.472 169.356 143.736C169.106 144 168.798 144.132 168.432 144.132ZM183.14 144.154C182.128 144.154 181.219 143.978 180.412 143.626C179.62 143.259 178.997 142.761 178.542 142.13C178.087 141.485 177.853 140.744 177.838 139.908H179.972C180.045 140.627 180.339 141.235 180.852 141.734C181.38 142.218 182.143 142.46 183.14 142.46C184.093 142.46 184.841 142.225 185.384 141.756C185.941 141.272 186.22 140.656 186.22 139.908C186.22 139.321 186.059 138.845 185.736 138.478C185.413 138.111 185.01 137.833 184.526 137.642C184.042 137.451 183.389 137.246 182.568 137.026C181.556 136.762 180.742 136.498 180.126 136.234C179.525 135.97 179.004 135.559 178.564 135.002C178.139 134.43 177.926 133.667 177.926 132.714C177.926 131.878 178.139 131.137 178.564 130.492C178.989 129.847 179.583 129.348 180.346 128.996C181.123 128.644 182.011 128.468 183.008 128.468C184.445 128.468 185.619 128.827 186.528 129.546C187.452 130.265 187.973 131.218 188.09 132.406H185.89C185.817 131.819 185.509 131.306 184.966 130.866C184.423 130.411 183.705 130.184 182.81 130.184C181.974 130.184 181.292 130.404 180.764 130.844C180.236 131.269 179.972 131.871 179.972 132.648C179.972 133.205 180.126 133.66 180.434 134.012C180.757 134.364 181.145 134.635 181.6 134.826C182.069 135.002 182.722 135.207 183.558 135.442C184.57 135.721 185.384 135.999 186 136.278C186.616 136.542 187.144 136.96 187.584 137.532C188.024 138.089 188.244 138.852 188.244 139.82C188.244 140.568 188.046 141.272 187.65 141.932C187.254 142.592 186.667 143.127 185.89 143.538C185.113 143.949 184.196 144.154 183.14 144.154ZM193.632 133.594V140.7C193.632 141.287 193.757 141.705 194.006 141.954C194.255 142.189 194.688 142.306 195.304 142.306H196.778V144H194.974C193.859 144 193.023 143.743 192.466 143.23C191.909 142.717 191.63 141.873 191.63 140.7V133.594H190.068V131.944H191.63V128.908H193.632V131.944H196.778V133.594H193.632ZM198.456 137.928C198.456 136.696 198.705 135.618 199.204 134.694C199.702 133.755 200.384 133.029 201.25 132.516C202.13 132.003 203.105 131.746 204.176 131.746C205.232 131.746 206.148 131.973 206.926 132.428C207.703 132.883 208.282 133.455 208.664 134.144V131.944H210.688V144H208.664V141.756C208.268 142.46 207.674 143.047 206.882 143.516C206.104 143.971 205.195 144.198 204.154 144.198C203.083 144.198 202.115 143.934 201.25 143.406C200.384 142.878 199.702 142.137 199.204 141.184C198.705 140.231 198.456 139.145 198.456 137.928ZM208.664 137.95C208.664 137.041 208.48 136.249 208.114 135.574C207.747 134.899 207.248 134.386 206.618 134.034C206.002 133.667 205.32 133.484 204.572 133.484C203.824 133.484 203.142 133.66 202.526 134.012C201.91 134.364 201.418 134.877 201.052 135.552C200.685 136.227 200.502 137.019 200.502 137.928C200.502 138.852 200.685 139.659 201.052 140.348C201.418 141.023 201.91 141.543 202.526 141.91C203.142 142.262 203.824 142.438 204.572 142.438C205.32 142.438 206.002 142.262 206.618 141.91C207.248 141.543 207.747 141.023 208.114 140.348C208.48 139.659 208.664 138.859 208.664 137.95ZM224.455 131.944L217.195 149.676H215.127L217.503 143.868L212.641 131.944H214.863L218.647 141.712L222.387 131.944H224.455ZM237.239 133.594H234.709V144H232.707V133.594H231.145V131.944H232.707V131.086C232.707 129.737 233.051 128.754 233.741 128.138C234.445 127.507 235.567 127.192 237.107 127.192V128.864C236.227 128.864 235.603 129.04 235.237 129.392C234.885 129.729 234.709 130.294 234.709 131.086V131.944H237.239V133.594ZM244.831 144.198C243.702 144.198 242.675 143.941 241.751 143.428C240.842 142.915 240.123 142.189 239.595 141.25C239.082 140.297 238.825 139.197 238.825 137.95C238.825 136.718 239.089 135.633 239.617 134.694C240.16 133.741 240.893 133.015 241.817 132.516C242.741 132.003 243.775 131.746 244.919 131.746C246.063 131.746 247.097 132.003 248.021 132.516C248.945 133.015 249.671 133.733 250.199 134.672C250.742 135.611 251.013 136.703 251.013 137.95C251.013 139.197 250.734 140.297 250.177 141.25C249.634 142.189 248.894 142.915 247.955 143.428C247.016 143.941 245.975 144.198 244.831 144.198ZM244.831 142.438C245.55 142.438 246.224 142.269 246.855 141.932C247.486 141.595 247.992 141.089 248.373 140.414C248.769 139.739 248.967 138.918 248.967 137.95C248.967 136.982 248.776 136.161 248.395 135.486C248.014 134.811 247.515 134.313 246.899 133.99C246.283 133.653 245.616 133.484 244.897 133.484C244.164 133.484 243.489 133.653 242.873 133.99C242.272 134.313 241.788 134.811 241.421 135.486C241.054 136.161 240.871 136.982 240.871 137.95C240.871 138.933 241.047 139.761 241.399 140.436C241.766 141.111 242.25 141.617 242.851 141.954C243.452 142.277 244.112 142.438 244.831 142.438ZM258.903 144.198C257.774 144.198 256.747 143.941 255.823 143.428C254.914 142.915 254.195 142.189 253.667 141.25C253.154 140.297 252.897 139.197 252.897 137.95C252.897 136.718 253.161 135.633 253.689 134.694C254.232 133.741 254.965 133.015 255.889 132.516C256.813 132.003 257.847 131.746 258.991 131.746C260.135 131.746 261.169 132.003 262.093 132.516C263.017 133.015 263.743 133.733 264.271 134.672C264.814 135.611 265.085 136.703 265.085 137.95C265.085 139.197 264.807 140.297 264.249 141.25C263.707 142.189 262.966 142.915 262.027 143.428C261.089 143.941 260.047 144.198 258.903 144.198ZM258.903 142.438C259.622 142.438 260.297 142.269 260.927 141.932C261.558 141.595 262.064 141.089 262.445 140.414C262.841 139.739 263.039 138.918 263.039 137.95C263.039 136.982 262.849 136.161 262.467 135.486C262.086 134.811 261.587 134.313 260.971 133.99C260.355 133.653 259.688 133.484 258.969 133.484C258.236 133.484 257.561 133.653 256.945 133.99C256.344 134.313 255.86 134.811 255.493 135.486C255.127 136.161 254.943 136.982 254.943 137.95C254.943 138.933 255.119 139.761 255.471 140.436C255.838 141.111 256.322 141.617 256.923 141.954C257.525 142.277 258.185 142.438 258.903 142.438ZM269.719 127.72V144H267.717V127.72H269.719ZM274.166 129.986C273.784 129.986 273.462 129.854 273.198 129.59C272.934 129.326 272.802 129.003 272.802 128.622C272.802 128.241 272.934 127.918 273.198 127.654C273.462 127.39 273.784 127.258 274.166 127.258C274.532 127.258 274.84 127.39 275.09 127.654C275.354 127.918 275.486 128.241 275.486 128.622C275.486 129.003 275.354 129.326 275.09 129.59C274.84 129.854 274.532 129.986 274.166 129.986ZM275.134 131.944V144H273.132V131.944H275.134ZM282.814 144.198C281.89 144.198 281.061 144.044 280.328 143.736C279.594 143.413 279.015 142.973 278.59 142.416C278.164 141.844 277.93 141.191 277.886 140.458H279.954C280.012 141.059 280.291 141.551 280.79 141.932C281.303 142.313 281.97 142.504 282.792 142.504C283.554 142.504 284.156 142.335 284.596 141.998C285.036 141.661 285.256 141.235 285.256 140.722C285.256 140.194 285.021 139.805 284.552 139.556C284.082 139.292 283.356 139.035 282.374 138.786C281.479 138.551 280.746 138.317 280.174 138.082C279.616 137.833 279.132 137.473 278.722 137.004C278.326 136.52 278.128 135.889 278.128 135.112C278.128 134.496 278.311 133.931 278.678 133.418C279.044 132.905 279.565 132.501 280.24 132.208C280.914 131.9 281.684 131.746 282.55 131.746C283.884 131.746 284.962 132.083 285.784 132.758C286.605 133.433 287.045 134.357 287.104 135.53H285.102C285.058 134.899 284.801 134.393 284.332 134.012C283.877 133.631 283.261 133.44 282.484 133.44C281.765 133.44 281.193 133.594 280.768 133.902C280.342 134.21 280.13 134.613 280.13 135.112C280.13 135.508 280.254 135.838 280.504 136.102C280.768 136.351 281.09 136.557 281.472 136.718C281.868 136.865 282.41 137.033 283.1 137.224C283.965 137.459 284.669 137.693 285.212 137.928C285.754 138.148 286.216 138.485 286.598 138.94C286.994 139.395 287.199 139.989 287.214 140.722C287.214 141.382 287.03 141.976 286.664 142.504C286.297 143.032 285.776 143.45 285.102 143.758C284.442 144.051 283.679 144.198 282.814 144.198ZM296.024 131.724C296.933 131.724 297.754 131.922 298.488 132.318C299.221 132.699 299.793 133.279 300.204 134.056C300.629 134.833 300.842 135.779 300.842 136.894V144H298.862V137.18C298.862 135.977 298.561 135.061 297.96 134.43C297.358 133.785 296.537 133.462 295.496 133.462C294.44 133.462 293.596 133.792 292.966 134.452C292.35 135.112 292.042 136.073 292.042 137.334V144H290.04V127.72H292.042V133.66C292.438 133.044 292.98 132.567 293.67 132.23C294.374 131.893 295.158 131.724 296.024 131.724ZM304.75 144.132C304.369 144.132 304.046 144 303.782 143.736C303.518 143.472 303.386 143.149 303.386 142.768C303.386 142.387 303.518 142.064 303.782 141.8C304.046 141.536 304.369 141.404 304.75 141.404C305.117 141.404 305.425 141.536 305.674 141.8C305.938 142.064 306.07 142.387 306.07 142.768C306.07 143.149 305.938 143.472 305.674 143.736C305.425 144 305.117 144.132 304.75 144.132ZM309.039 128.666H311.261L309.149 133.66H307.741L309.039 128.666ZM312.603 128.666H314.825L312.713 133.66H311.283L312.603 128.666ZM34.646 182.154C33.2233 182.154 31.9253 181.824 30.752 181.164C29.5787 180.489 28.6473 179.558 27.958 178.37C27.2833 177.167 26.946 175.818 26.946 174.322C26.946 172.826 27.2833 171.484 27.958 170.296C28.6473 169.093 29.5787 168.162 30.752 167.502C31.9253 166.827 33.2233 166.49 34.646 166.49C36.0833 166.49 37.3887 166.827 38.562 167.502C39.7353 168.162 40.6593 169.086 41.334 170.274C42.0087 171.462 42.346 172.811 42.346 174.322C42.346 175.833 42.0087 177.182 41.334 178.37C40.6593 179.558 39.7353 180.489 38.562 181.164C37.3887 181.824 36.0833 182.154 34.646 182.154ZM34.646 180.416C35.7167 180.416 36.6773 180.167 37.528 179.668C38.3933 179.169 39.068 178.458 39.552 177.534C40.0507 176.61 40.3 175.539 40.3 174.322C40.3 173.09 40.0507 172.019 39.552 171.11C39.068 170.186 38.4007 169.475 37.55 168.976C36.6993 168.477 35.7313 168.228 34.646 168.228C33.5607 168.228 32.5927 168.477 31.742 168.976C30.8913 169.475 30.2167 170.186 29.718 171.11C29.234 172.019 28.992 173.09 28.992 174.322C28.992 175.539 29.234 176.61 29.718 177.534C30.2167 178.458 30.8913 179.169 31.742 179.668C32.6073 180.167 33.5753 180.416 34.646 180.416ZM46.0669 171.66H43.8229L45.9349 166.666H47.3649L46.0669 171.66ZM51.2974 180.35H57.2154V182H49.0094V180.35L54.8614 171.572H49.0534V169.944H57.1714V171.572L51.2974 180.35ZM64.9304 175.928C64.9304 174.696 65.1797 173.618 65.6784 172.694C66.177 171.755 66.859 171.029 67.7244 170.516C68.6044 170.003 69.587 169.746 70.6724 169.746C71.7137 169.746 72.623 169.981 73.4004 170.45C74.1924 170.905 74.7717 171.469 75.1384 172.144V169.944H77.1624V187.72H75.1384V179.778C74.757 180.453 74.1704 181.025 73.3784 181.494C72.5864 181.963 71.6624 182.198 70.6064 182.198C69.5504 182.198 68.5897 181.934 67.7244 181.406C66.859 180.878 66.177 180.137 65.6784 179.184C65.1797 178.231 64.9304 177.145 64.9304 175.928ZM75.1384 175.95C75.1384 175.041 74.955 174.249 74.5884 173.574C74.2217 172.899 73.723 172.386 73.0924 172.034C72.4764 171.667 71.7944 171.484 71.0464 171.484C70.2984 171.484 69.6164 171.66 69.0004 172.012C68.3844 172.364 67.893 172.877 67.5264 173.552C67.1597 174.227 66.9764 175.019 66.9764 175.928C66.9764 176.852 67.1597 177.659 67.5264 178.348C67.893 179.023 68.3844 179.543 69.0004 179.91C69.6164 180.262 70.2984 180.438 71.0464 180.438C71.7944 180.438 72.4764 180.262 73.0924 179.91C73.723 179.543 74.2217 179.023 74.5884 178.348C74.955 177.659 75.1384 176.859 75.1384 175.95ZM81.5796 167.986C81.1982 167.986 80.8756 167.854 80.6116 167.59C80.3476 167.326 80.2156 167.003 80.2156 166.622C80.2156 166.241 80.3476 165.918 80.6116 165.654C80.8756 165.39 81.1982 165.258 81.5796 165.258C81.9462 165.258 82.2542 165.39 82.5036 165.654C82.7676 165.918 82.8996 166.241 82.8996 166.622C82.8996 167.003 82.7676 167.326 82.5036 167.59C82.2542 167.854 81.9462 167.986 81.5796 167.986ZM82.5476 169.944V182H80.5456V169.944H82.5476ZM87.4556 180.35H93.3736V182H85.1676V180.35L91.0196 171.572H85.2116V169.944H93.3296V171.572L87.4556 180.35ZM97.0053 167.986C96.624 167.986 96.3013 167.854 96.0373 167.59C95.7733 167.326 95.6413 167.003 95.6413 166.622C95.6413 166.241 95.7733 165.918 96.0373 165.654C96.3013 165.39 96.624 165.258 97.0053 165.258C97.372 165.258 97.68 165.39 97.9293 165.654C98.1933 165.918 98.3253 166.241 98.3253 166.622C98.3253 167.003 98.1933 167.326 97.9293 167.59C97.68 167.854 97.372 167.986 97.0053 167.986ZM97.9733 169.944V182H95.9713V169.944H97.9733ZM100.637 175.928C100.637 174.696 100.887 173.618 101.385 172.694C101.884 171.755 102.566 171.029 103.431 170.516C104.311 170.003 105.294 169.746 106.379 169.746C107.421 169.746 108.33 169.981 109.107 170.45C109.899 170.905 110.479 171.469 110.845 172.144V169.944H112.869V187.72H110.845V179.778C110.464 180.453 109.877 181.025 109.085 181.494C108.293 181.963 107.369 182.198 106.313 182.198C105.257 182.198 104.297 181.934 103.431 181.406C102.566 180.878 101.884 180.137 101.385 179.184C100.887 178.231 100.637 177.145 100.637 175.928ZM110.845 175.95C110.845 175.041 110.662 174.249 110.295 173.574C109.929 172.899 109.43 172.386 108.799 172.034C108.183 171.667 107.501 171.484 106.753 171.484C106.005 171.484 105.323 171.66 104.707 172.012C104.091 172.364 103.6 172.877 103.233 173.552C102.867 174.227 102.683 175.019 102.683 175.928C102.683 176.852 102.867 177.659 103.233 178.348C103.6 179.023 104.091 179.543 104.707 179.91C105.323 180.262 106.005 180.438 106.753 180.438C107.501 180.438 108.183 180.262 108.799 179.91C109.43 179.543 109.929 179.023 110.295 178.348C110.662 177.659 110.845 176.859 110.845 175.95ZM117.287 167.986C116.905 167.986 116.583 167.854 116.319 167.59C116.055 167.326 115.923 167.003 115.923 166.622C115.923 166.241 116.055 165.918 116.319 165.654C116.583 165.39 116.905 165.258 117.287 165.258C117.653 165.258 117.961 165.39 118.211 165.654C118.475 165.918 118.607 166.241 118.607 166.622C118.607 167.003 118.475 167.326 118.211 167.59C117.961 167.854 117.653 167.986 117.287 167.986ZM118.255 169.944V182H116.253V169.944H118.255ZM125.935 182.198C125.011 182.198 124.182 182.044 123.449 181.736C122.715 181.413 122.136 180.973 121.711 180.416C121.285 179.844 121.051 179.191 121.007 178.458H123.075C123.133 179.059 123.412 179.551 123.911 179.932C124.424 180.313 125.091 180.504 125.913 180.504C126.675 180.504 127.277 180.335 127.717 179.998C128.157 179.661 128.377 179.235 128.377 178.722C128.377 178.194 128.142 177.805 127.673 177.556C127.203 177.292 126.477 177.035 125.495 176.786C124.6 176.551 123.867 176.317 123.295 176.082C122.737 175.833 122.253 175.473 121.843 175.004C121.447 174.52 121.249 173.889 121.249 173.112C121.249 172.496 121.432 171.931 121.799 171.418C122.165 170.905 122.686 170.501 123.361 170.208C124.035 169.9 124.805 169.746 125.671 169.746C127.005 169.746 128.083 170.083 128.905 170.758C129.726 171.433 130.166 172.357 130.225 173.53H128.223C128.179 172.899 127.922 172.393 127.453 172.012C126.998 171.631 126.382 171.44 125.605 171.44C124.886 171.44 124.314 171.594 123.889 171.902C123.463 172.21 123.251 172.613 123.251 173.112C123.251 173.508 123.375 173.838 123.625 174.102C123.889 174.351 124.211 174.557 124.593 174.718C124.989 174.865 125.531 175.033 126.221 175.224C127.086 175.459 127.79 175.693 128.333 175.928C128.875 176.148 129.337 176.485 129.719 176.94C130.115 177.395 130.32 177.989 130.335 178.722C130.335 179.382 130.151 179.976 129.785 180.504C129.418 181.032 128.897 181.45 128.223 181.758C127.563 182.051 126.8 182.198 125.935 182.198ZM139.145 169.724C140.054 169.724 140.875 169.922 141.609 170.318C142.342 170.699 142.914 171.279 143.325 172.056C143.75 172.833 143.963 173.779 143.963 174.894V182H141.983V175.18C141.983 173.977 141.682 173.061 141.081 172.43C140.479 171.785 139.658 171.462 138.617 171.462C137.561 171.462 136.717 171.792 136.087 172.452C135.471 173.112 135.163 174.073 135.163 175.334V182H133.161V165.72H135.163V171.66C135.559 171.044 136.101 170.567 136.791 170.23C137.495 169.893 138.279 169.724 139.145 169.724ZM148.267 167.986C147.886 167.986 147.563 167.854 147.299 167.59C147.035 167.326 146.903 167.003 146.903 166.622C146.903 166.241 147.035 165.918 147.299 165.654C147.563 165.39 147.886 165.258 148.267 165.258C148.634 165.258 148.942 165.39 149.191 165.654C149.455 165.918 149.587 166.241 149.587 166.622C149.587 167.003 149.455 167.326 149.191 167.59C148.942 167.854 148.634 167.986 148.267 167.986ZM149.235 169.944V182H147.233V169.944H149.235ZM158.521 169.724C159.988 169.724 161.176 170.171 162.085 171.066C162.994 171.946 163.449 173.222 163.449 174.894V182H161.469V175.18C161.469 173.977 161.168 173.061 160.567 172.43C159.966 171.785 159.144 171.462 158.103 171.462C157.047 171.462 156.204 171.792 155.573 172.452C154.957 173.112 154.649 174.073 154.649 175.334V182H152.647V169.944H154.649V171.66C155.045 171.044 155.58 170.567 156.255 170.23C156.944 169.893 157.7 169.724 158.521 169.724ZM171.691 169.746C172.733 169.746 173.642 169.973 174.419 170.428C175.211 170.883 175.798 171.455 176.179 172.144V169.944H178.203V182.264C178.203 183.364 177.969 184.339 177.499 185.19C177.03 186.055 176.355 186.73 175.475 187.214C174.61 187.698 173.598 187.94 172.439 187.94C170.855 187.94 169.535 187.566 168.479 186.818C167.423 186.07 166.8 185.051 166.609 183.76H168.589C168.809 184.493 169.264 185.08 169.953 185.52C170.643 185.975 171.471 186.202 172.439 186.202C173.539 186.202 174.434 185.857 175.123 185.168C175.827 184.479 176.179 183.511 176.179 182.264V179.734C175.783 180.438 175.197 181.025 174.419 181.494C173.642 181.963 172.733 182.198 171.691 182.198C170.621 182.198 169.645 181.934 168.765 181.406C167.9 180.878 167.218 180.137 166.719 179.184C166.221 178.231 165.971 177.145 165.971 175.928C165.971 174.696 166.221 173.618 166.719 172.694C167.218 171.755 167.9 171.029 168.765 170.516C169.645 170.003 170.621 169.746 171.691 169.746ZM176.179 175.95C176.179 175.041 175.996 174.249 175.629 173.574C175.263 172.899 174.764 172.386 174.133 172.034C173.517 171.667 172.835 171.484 172.087 171.484C171.339 171.484 170.657 171.66 170.041 172.012C169.425 172.364 168.934 172.877 168.567 173.552C168.201 174.227 168.017 175.019 168.017 175.928C168.017 176.852 168.201 177.659 168.567 178.348C168.934 179.023 169.425 179.543 170.041 179.91C170.657 180.262 171.339 180.438 172.087 180.438C172.835 180.438 173.517 180.262 174.133 179.91C174.764 179.543 175.263 179.023 175.629 178.348C175.996 177.659 176.179 176.859 176.179 175.95ZM182.621 167.986C182.239 167.986 181.917 167.854 181.653 167.59C181.389 167.326 181.257 167.003 181.257 166.622C181.257 166.241 181.389 165.918 181.653 165.654C181.917 165.39 182.239 165.258 182.621 165.258C182.987 165.258 183.295 165.39 183.545 165.654C183.809 165.918 183.941 166.241 183.941 166.622C183.941 167.003 183.809 167.326 183.545 167.59C183.295 167.854 182.987 167.986 182.621 167.986ZM183.589 169.944V182H181.587V169.944H183.589ZM188.497 180.35H194.415V182H186.209V180.35L192.061 171.572H186.253V169.944H194.371V171.572L188.497 180.35ZM202.886 169.724C204.353 169.724 205.541 170.171 206.45 171.066C207.36 171.946 207.814 173.222 207.814 174.894V182H205.834V175.18C205.834 173.977 205.534 173.061 204.932 172.43C204.331 171.785 203.51 171.462 202.468 171.462C201.412 171.462 200.569 171.792 199.938 172.452C199.322 173.112 199.014 174.073 199.014 175.334V182H197.012V169.944H199.014V171.66C199.41 171.044 199.946 170.567 200.62 170.23C201.31 169.893 202.065 169.724 202.886 169.724ZM212.119 167.986C211.737 167.986 211.415 167.854 211.151 167.59C210.887 167.326 210.755 167.003 210.755 166.622C210.755 166.241 210.887 165.918 211.151 165.654C211.415 165.39 211.737 165.258 212.119 165.258C212.485 165.258 212.793 165.39 213.043 165.654C213.307 165.918 213.439 166.241 213.439 166.622C213.439 167.003 213.307 167.326 213.043 167.59C212.793 167.854 212.485 167.986 212.119 167.986ZM213.087 169.944V182H211.085V169.944H213.087ZM232.748 169.944L225.488 187.676H223.42L225.796 181.868L220.934 169.944H223.156L226.94 179.712L230.68 169.944H232.748ZM240.018 182.198C238.889 182.198 237.862 181.941 236.938 181.428C236.029 180.915 235.31 180.189 234.782 179.25C234.269 178.297 234.012 177.197 234.012 175.95C234.012 174.718 234.276 173.633 234.804 172.694C235.347 171.741 236.08 171.015 237.004 170.516C237.928 170.003 238.962 169.746 240.106 169.746C241.25 169.746 242.284 170.003 243.208 170.516C244.132 171.015 244.858 171.733 245.386 172.672C245.929 173.611 246.2 174.703 246.2 175.95C246.2 177.197 245.922 178.297 245.364 179.25C244.822 180.189 244.081 180.915 243.142 181.428C242.204 181.941 241.162 182.198 240.018 182.198ZM240.018 180.438C240.737 180.438 241.412 180.269 242.042 179.932C242.673 179.595 243.179 179.089 243.56 178.414C243.956 177.739 244.154 176.918 244.154 175.95C244.154 174.982 243.964 174.161 243.582 173.486C243.201 172.811 242.702 172.313 242.086 171.99C241.47 171.653 240.803 171.484 240.084 171.484C239.351 171.484 238.676 171.653 238.06 171.99C237.459 172.313 236.975 172.811 236.608 173.486C236.242 174.161 236.058 174.982 236.058 175.95C236.058 176.933 236.234 177.761 236.586 178.436C236.953 179.111 237.437 179.617 238.038 179.954C238.64 180.277 239.3 180.438 240.018 180.438ZM249.911 171.66H247.667L249.779 166.666H251.209L249.911 171.66ZM252.897 175.928C252.897 174.696 253.147 173.618 253.645 172.694C254.144 171.755 254.826 171.029 255.691 170.516C256.571 170.003 257.554 169.746 258.639 169.746C259.681 169.746 260.59 169.981 261.367 170.45C262.159 170.905 262.739 171.469 263.105 172.144V169.944H265.129V187.72H263.105V179.778C262.724 180.453 262.137 181.025 261.345 181.494C260.553 181.963 259.629 182.198 258.573 182.198C257.517 182.198 256.557 181.934 255.691 181.406C254.826 180.878 254.144 180.137 253.645 179.184C253.147 178.231 252.897 177.145 252.897 175.928ZM263.105 175.95C263.105 175.041 262.922 174.249 262.555 173.574C262.189 172.899 261.69 172.386 261.059 172.034C260.443 171.667 259.761 171.484 259.013 171.484C258.265 171.484 257.583 171.66 256.967 172.012C256.351 172.364 255.86 172.877 255.493 173.552C255.127 174.227 254.943 175.019 254.943 175.928C254.943 176.852 255.127 177.659 255.493 178.348C255.86 179.023 256.351 179.543 256.967 179.91C257.583 180.262 258.265 180.438 259.013 180.438C259.761 180.438 260.443 180.262 261.059 179.91C261.69 179.543 262.189 179.023 262.555 178.348C262.922 177.659 263.105 176.859 263.105 175.95ZM273.77 182.198C272.641 182.198 271.614 181.941 270.69 181.428C269.781 180.915 269.062 180.189 268.534 179.25C268.021 178.297 267.764 177.197 267.764 175.95C267.764 174.718 268.028 173.633 268.556 172.694C269.099 171.741 269.832 171.015 270.756 170.516C271.68 170.003 272.714 169.746 273.858 169.746C275.002 169.746 276.036 170.003 276.96 170.516C277.884 171.015 278.61 171.733 279.138 172.672C279.681 173.611 279.952 174.703 279.952 175.95C279.952 177.197 279.674 178.297 279.116 179.25C278.574 180.189 277.833 180.915 276.894 181.428C275.956 181.941 274.914 182.198 273.77 182.198ZM273.77 180.438C274.489 180.438 275.164 180.269 275.794 179.932C276.425 179.595 276.931 179.089 277.312 178.414C277.708 177.739 277.906 176.918 277.906 175.95C277.906 174.982 277.716 174.161 277.334 173.486C276.953 172.811 276.454 172.313 275.838 171.99C275.222 171.653 274.555 171.484 273.836 171.484C273.103 171.484 272.428 171.653 271.812 171.99C271.211 172.313 270.727 172.811 270.36 173.486C269.994 174.161 269.81 174.982 269.81 175.95C269.81 176.933 269.986 177.761 270.338 178.436C270.705 179.111 271.189 179.617 271.79 179.954C272.392 180.277 273.052 180.438 273.77 180.438ZM285.027 171.594V178.7C285.027 179.287 285.151 179.705 285.401 179.954C285.65 180.189 286.083 180.306 286.699 180.306H288.173V182H286.369C285.254 182 284.418 181.743 283.861 181.23C283.303 180.717 283.025 179.873 283.025 178.7V171.594H281.463V169.944H283.025V166.908H285.027V169.944H288.173V171.594H285.027ZM305.096 169.724C306.035 169.724 306.871 169.922 307.604 170.318C308.338 170.699 308.917 171.279 309.342 172.056C309.768 172.833 309.98 173.779 309.98 174.894V182H308V175.18C308 173.977 307.7 173.061 307.098 172.43C306.512 171.785 305.712 171.462 304.7 171.462C303.659 171.462 302.83 171.799 302.214 172.474C301.598 173.134 301.29 174.095 301.29 175.356V182H299.31V175.18C299.31 173.977 299.01 173.061 298.408 172.43C297.822 171.785 297.022 171.462 296.01 171.462C294.969 171.462 294.14 171.799 293.524 172.474C292.908 173.134 292.6 174.095 292.6 175.356V182H290.598V169.944H292.6V171.682C292.996 171.051 293.524 170.567 294.184 170.23C294.859 169.893 295.6 169.724 296.406 169.724C297.418 169.724 298.313 169.951 299.09 170.406C299.868 170.861 300.447 171.528 300.828 172.408C301.166 171.557 301.723 170.897 302.5 170.428C303.278 169.959 304.143 169.724 305.096 169.724ZM312.516 175.928C312.516 174.696 312.766 173.618 313.264 172.694C313.763 171.755 314.445 171.029 315.31 170.516C316.19 170.003 317.166 169.746 318.236 169.746C319.292 169.746 320.209 169.973 320.986 170.428C321.764 170.883 322.343 171.455 322.724 172.144V169.944H324.748V182H322.724V179.756C322.328 180.46 321.734 181.047 320.942 181.516C320.165 181.971 319.256 182.198 318.214 182.198C317.144 182.198 316.176 181.934 315.31 181.406C314.445 180.878 313.763 180.137 313.264 179.184C312.766 178.231 312.516 177.145 312.516 175.928ZM322.724 175.95C322.724 175.041 322.541 174.249 322.174 173.574C321.808 172.899 321.309 172.386 320.678 172.034C320.062 171.667 319.38 171.484 318.632 171.484C317.884 171.484 317.202 171.66 316.586 172.012C315.97 172.364 315.479 172.877 315.112 173.552C314.746 174.227 314.562 175.019 314.562 175.928C314.562 176.852 314.746 177.659 315.112 178.348C315.479 179.023 315.97 179.543 316.586 179.91C317.202 180.262 317.884 180.438 318.632 180.438C319.38 180.438 320.062 180.262 320.678 179.91C321.309 179.543 321.808 179.023 322.174 178.348C322.541 177.659 322.724 176.859 322.724 175.95ZM334.006 169.724C335.472 169.724 336.66 170.171 337.57 171.066C338.479 171.946 338.934 173.222 338.934 174.894V182H336.954V175.18C336.954 173.977 336.653 173.061 336.052 172.43C335.45 171.785 334.629 171.462 333.588 171.462C332.532 171.462 331.688 171.792 331.058 172.452C330.442 173.112 330.134 174.073 330.134 175.334V182H328.132V169.944H330.134V171.66C330.53 171.044 331.065 170.567 331.74 170.23C332.429 169.893 333.184 169.724 334.006 169.724ZM347.176 169.746C348.217 169.746 349.126 169.973 349.904 170.428C350.696 170.883 351.282 171.455 351.664 172.144V169.944H353.688V182.264C353.688 183.364 353.453 184.339 352.984 185.19C352.514 186.055 351.84 186.73 350.96 187.214C350.094 187.698 349.082 187.94 347.924 187.94C346.34 187.94 345.02 187.566 343.964 186.818C342.908 186.07 342.284 185.051 342.094 183.76H344.074C344.294 184.493 344.748 185.08 345.438 185.52C346.127 185.975 346.956 186.202 347.924 186.202C349.024 186.202 349.918 185.857 350.608 185.168C351.312 184.479 351.664 183.511 351.664 182.264V179.734C351.268 180.438 350.681 181.025 349.904 181.494C349.126 181.963 348.217 182.198 347.176 182.198C346.105 182.198 345.13 181.934 344.25 181.406C343.384 180.878 342.702 180.137 342.204 179.184C341.705 178.231 341.456 177.145 341.456 175.928C341.456 174.696 341.705 173.618 342.204 172.694C342.702 171.755 343.384 171.029 344.25 170.516C345.13 170.003 346.105 169.746 347.176 169.746ZM351.664 175.95C351.664 175.041 351.48 174.249 351.114 173.574C350.747 172.899 350.248 172.386 349.618 172.034C349.002 171.667 348.32 171.484 347.572 171.484C346.824 171.484 346.142 171.66 345.526 172.012C344.91 172.364 344.418 172.877 344.052 173.552C343.685 174.227 343.502 175.019 343.502 175.928C343.502 176.852 343.685 177.659 344.052 178.348C344.418 179.023 344.91 179.543 345.526 179.91C346.142 180.262 346.824 180.438 347.572 180.438C348.32 180.438 349.002 180.262 349.618 179.91C350.248 179.543 350.747 179.023 351.114 178.348C351.48 177.659 351.664 176.859 351.664 175.95ZM359.139 179.228L356.675 185.146H355.333L356.939 179.228H359.139ZM373.282 169.724C374.191 169.724 375.012 169.922 375.746 170.318C376.479 170.699 377.051 171.279 377.462 172.056C377.887 172.833 378.1 173.779 378.1 174.894V182H376.12V175.18C376.12 173.977 375.819 173.061 375.218 172.43C374.616 171.785 373.795 171.462 372.754 171.462C371.698 171.462 370.854 171.792 370.224 172.452C369.608 173.112 369.3 174.073 369.3 175.334V182H367.298V165.72H369.3V171.66C369.696 171.044 370.238 170.567 370.928 170.23C371.632 169.893 372.416 169.724 373.282 169.724ZM380.622 175.928C380.622 174.696 380.871 173.618 381.37 172.694C381.868 171.755 382.55 171.029 383.416 170.516C384.296 170.003 385.271 169.746 386.342 169.746C387.398 169.746 388.314 169.973 389.092 170.428C389.869 170.883 390.448 171.455 390.83 172.144V169.944H392.854V182H390.83V179.756C390.434 180.46 389.84 181.047 389.048 181.516C388.27 181.971 387.361 182.198 386.32 182.198C385.249 182.198 384.281 181.934 383.416 181.406C382.55 180.878 381.868 180.137 381.37 179.184C380.871 178.231 380.622 177.145 380.622 175.928ZM390.83 175.95C390.83 175.041 390.646 174.249 390.28 173.574C389.913 172.899 389.414 172.386 388.784 172.034C388.168 171.667 387.486 171.484 386.738 171.484C385.99 171.484 385.308 171.66 384.692 172.012C384.076 172.364 383.584 172.877 383.218 173.552C382.851 174.227 382.668 175.019 382.668 175.928C382.668 176.852 382.851 177.659 383.218 178.348C383.584 179.023 384.076 179.543 384.692 179.91C385.308 180.262 385.99 180.438 386.738 180.438C387.486 180.438 388.168 180.262 388.784 179.91C389.414 179.543 389.913 179.023 390.28 178.348C390.646 177.659 390.83 176.859 390.83 175.95ZM398.239 171.902C398.591 171.213 399.09 170.677 399.735 170.296C400.395 169.915 401.194 169.724 402.133 169.724V171.792H401.605C399.361 171.792 398.239 173.009 398.239 175.444V182H396.237V169.944H398.239V171.902ZM26.946 213.928C26.946 212.696 27.1953 211.618 27.694 210.694C28.1927 209.755 28.8747 209.029 29.74 208.516C30.62 208.003 31.6027 207.746 32.688 207.746C33.6267 207.746 34.4993 207.966 35.306 208.406C36.1127 208.831 36.7287 209.396 37.154 210.1V203.72H39.178V220H37.154V217.734C36.758 218.453 36.1713 219.047 35.394 219.516C34.6167 219.971 33.7073 220.198 32.666 220.198C31.5953 220.198 30.62 219.934 29.74 219.406C28.8747 218.878 28.1927 218.137 27.694 217.184C27.1953 216.231 26.946 215.145 26.946 213.928ZM37.154 213.95C37.154 213.041 36.9707 212.249 36.604 211.574C36.2373 210.899 35.7387 210.386 35.108 210.034C34.492 209.667 33.81 209.484 33.062 209.484C32.314 209.484 31.632 209.66 31.016 210.012C30.4 210.364 29.9087 210.877 29.542 211.552C29.1753 212.227 28.992 213.019 28.992 213.928C28.992 214.852 29.1753 215.659 29.542 216.348C29.9087 217.023 30.4 217.543 31.016 217.91C31.632 218.262 32.314 218.438 33.062 218.438C33.81 218.438 34.492 218.262 35.108 217.91C35.7387 217.543 36.2373 217.023 36.604 216.348C36.9707 215.659 37.154 214.859 37.154 213.95ZM47.8192 220.198C46.6899 220.198 45.6632 219.941 44.7392 219.428C43.8299 218.915 43.1112 218.189 42.5832 217.25C42.0699 216.297 41.8132 215.197 41.8132 213.95C41.8132 212.718 42.0772 211.633 42.6052 210.694C43.1479 209.741 43.8812 209.015 44.8052 208.516C45.7292 208.003 46.7632 207.746 47.9072 207.746C49.0512 207.746 50.0852 208.003 51.0092 208.516C51.9332 209.015 52.6592 209.733 53.1872 210.672C53.7299 211.611 54.0012 212.703 54.0012 213.95C54.0012 215.197 53.7225 216.297 53.1652 217.25C52.6225 218.189 51.8819 218.915 50.9432 219.428C50.0045 219.941 48.9632 220.198 47.8192 220.198ZM47.8192 218.438C48.5379 218.438 49.2125 218.269 49.8432 217.932C50.4739 217.595 50.9799 217.089 51.3612 216.414C51.7572 215.739 51.9552 214.918 51.9552 213.95C51.9552 212.982 51.7645 212.161 51.3832 211.486C51.0019 210.811 50.5032 210.313 49.8872 209.99C49.2712 209.653 48.6039 209.484 47.8852 209.484C47.1519 209.484 46.4772 209.653 45.8612 209.99C45.2599 210.313 44.7759 210.811 44.4092 211.486C44.0425 212.161 43.8592 212.982 43.8592 213.95C43.8592 214.933 44.0352 215.761 44.3872 216.436C44.7539 217.111 45.2379 217.617 45.8392 217.954C46.4405 218.277 47.1005 218.438 47.8192 218.438ZM57.6675 205.986C57.2861 205.986 56.9635 205.854 56.6995 205.59C56.4355 205.326 56.3035 205.003 56.3035 204.622C56.3035 204.241 56.4355 203.918 56.6995 203.654C56.9635 203.39 57.2861 203.258 57.6675 203.258C58.0341 203.258 58.3421 203.39 58.5915 203.654C58.8555 203.918 58.9875 204.241 58.9875 204.622C58.9875 205.003 58.8555 205.326 58.5915 205.59C58.3421 205.854 58.0341 205.986 57.6675 205.986ZM58.6355 207.944V220H56.6335V207.944H58.6355ZM76.5455 207.724C77.4842 207.724 78.3202 207.922 79.0535 208.318C79.7868 208.699 80.3662 209.279 80.7915 210.056C81.2169 210.833 81.4295 211.779 81.4295 212.894V220H79.4495V213.18C79.4495 211.977 79.1488 211.061 78.5475 210.43C77.9609 209.785 77.1615 209.462 76.1495 209.462C75.1082 209.462 74.2795 209.799 73.6635 210.474C73.0475 211.134 72.7395 212.095 72.7395 213.356V220H70.7595V213.18C70.7595 211.977 70.4588 211.061 69.8575 210.43C69.2708 209.785 68.4715 209.462 67.4595 209.462C66.4182 209.462 65.5895 209.799 64.9735 210.474C64.3575 211.134 64.0495 212.095 64.0495 213.356V220H62.0475V207.944H64.0495V209.682C64.4455 209.051 64.9735 208.567 65.6335 208.23C66.3082 207.893 67.0488 207.724 67.8555 207.724C68.8675 207.724 69.7622 207.951 70.5395 208.406C71.3168 208.861 71.8962 209.528 72.2775 210.408C72.6148 209.557 73.1722 208.897 73.9495 208.428C74.7268 207.959 75.5922 207.724 76.5455 207.724ZM91.6128 205.986C91.2314 205.986 90.9088 205.854 90.6448 205.59C90.3808 205.326 90.2488 205.003 90.2488 204.622C90.2488 204.241 90.3808 203.918 90.6448 203.654C90.9088 203.39 91.2314 203.258 91.6128 203.258C91.9794 203.258 92.2874 203.39 92.5368 203.654C92.8008 203.918 92.9328 204.241 92.9328 204.622C92.9328 205.003 92.8008 205.326 92.5368 205.59C92.2874 205.854 91.9794 205.986 91.6128 205.986ZM92.5808 207.944V220H90.5788V207.944H92.5808ZM101.867 207.724C103.333 207.724 104.521 208.171 105.431 209.066C106.34 209.946 106.795 211.222 106.795 212.894V220H104.815V213.18C104.815 211.977 104.514 211.061 103.913 210.43C103.311 209.785 102.49 209.462 101.449 209.462C100.393 209.462 99.5495 209.792 98.9188 210.452C98.3028 211.112 97.9948 212.073 97.9948 213.334V220H95.9928V207.944H97.9948V209.66C98.3908 209.044 98.9262 208.567 99.6008 208.23C100.29 207.893 101.045 207.724 101.867 207.724ZM112.507 209.594V216.7C112.507 217.287 112.632 217.705 112.881 217.954C113.13 218.189 113.563 218.306 114.179 218.306H115.653V220H113.849C112.734 220 111.898 219.743 111.341 219.23C110.784 218.717 110.505 217.873 110.505 216.7V209.594H108.943V207.944H110.505V204.908H112.507V207.944H115.653V209.594H112.507ZM119.113 205.986C118.731 205.986 118.409 205.854 118.145 205.59C117.881 205.326 117.749 205.003 117.749 204.622C117.749 204.241 117.881 203.918 118.145 203.654C118.409 203.39 118.731 203.258 119.113 203.258C119.479 203.258 119.787 203.39 120.037 203.654C120.301 203.918 120.433 204.241 120.433 204.622C120.433 205.003 120.301 205.326 120.037 205.59C119.787 205.854 119.479 205.986 119.113 205.986ZM120.081 207.944V220H118.079V207.944H120.081ZM125.495 203.72V220H123.493V203.72H125.495ZM129.941 205.986C129.56 205.986 129.237 205.854 128.973 205.59C128.709 205.326 128.577 205.003 128.577 204.622C128.577 204.241 128.709 203.918 128.973 203.654C129.237 203.39 129.56 203.258 129.941 203.258C130.308 203.258 130.616 203.39 130.865 203.654C131.129 203.918 131.261 204.241 131.261 204.622C131.261 205.003 131.129 205.326 130.865 205.59C130.616 205.854 130.308 205.986 129.941 205.986ZM130.909 207.944V220H128.907V207.944H130.909ZM138.589 220.198C137.665 220.198 136.836 220.044 136.103 219.736C135.37 219.413 134.79 218.973 134.365 218.416C133.94 217.844 133.705 217.191 133.661 216.458H135.729C135.788 217.059 136.066 217.551 136.565 217.932C137.078 218.313 137.746 218.504 138.567 218.504C139.33 218.504 139.931 218.335 140.371 217.998C140.811 217.661 141.031 217.235 141.031 216.722C141.031 216.194 140.796 215.805 140.327 215.556C139.858 215.292 139.132 215.035 138.149 214.786C137.254 214.551 136.521 214.317 135.949 214.082C135.392 213.833 134.908 213.473 134.497 213.004C134.101 212.52 133.903 211.889 133.903 211.112C133.903 210.496 134.086 209.931 134.453 209.418C134.82 208.905 135.34 208.501 136.015 208.208C136.69 207.9 137.46 207.746 138.325 207.746C139.66 207.746 140.738 208.083 141.559 208.758C142.38 209.433 142.82 210.357 142.879 211.53H140.877C140.833 210.899 140.576 210.393 140.107 210.012C139.652 209.631 139.036 209.44 138.259 209.44C137.54 209.44 136.968 209.594 136.543 209.902C136.118 210.21 135.905 210.613 135.905 211.112C135.905 211.508 136.03 211.838 136.279 212.102C136.543 212.351 136.866 212.557 137.247 212.718C137.643 212.865 138.186 213.033 138.875 213.224C139.74 213.459 140.444 213.693 140.987 213.928C141.53 214.148 141.992 214.485 142.373 214.94C142.769 215.395 142.974 215.989 142.989 216.722C142.989 217.382 142.806 217.976 142.439 218.504C142.072 219.032 141.552 219.45 140.877 219.758C140.217 220.051 139.454 220.198 138.589 220.198ZM151.799 207.724C152.708 207.724 153.53 207.922 154.263 208.318C154.996 208.699 155.568 209.279 155.979 210.056C156.404 210.833 156.617 211.779 156.617 212.894V220H154.637V213.18C154.637 211.977 154.336 211.061 153.735 210.43C153.134 209.785 152.312 209.462 151.271 209.462C150.215 209.462 149.372 209.792 148.741 210.452C148.125 211.112 147.817 212.073 147.817 213.334V220H145.815V203.72H147.817V209.66C148.213 209.044 148.756 208.567 149.445 208.23C150.149 207.893 150.934 207.724 151.799 207.724ZM161.955 217.228L159.491 223.146H158.149L159.755 217.228H161.955ZM175.372 220.198C174.243 220.198 173.216 219.941 172.292 219.428C171.383 218.915 170.664 218.189 170.136 217.25C169.623 216.297 169.366 215.197 169.366 213.95C169.366 212.718 169.63 211.633 170.158 210.694C170.701 209.741 171.434 209.015 172.358 208.516C173.282 208.003 174.316 207.746 175.46 207.746C176.604 207.746 177.638 208.003 178.562 208.516C179.486 209.015 180.212 209.733 180.74 210.672C181.283 211.611 181.554 212.703 181.554 213.95C181.554 215.197 181.275 216.297 180.718 217.25C180.175 218.189 179.435 218.915 178.496 219.428C177.557 219.941 176.516 220.198 175.372 220.198ZM175.372 218.438C176.091 218.438 176.765 218.269 177.396 217.932C178.027 217.595 178.533 217.089 178.914 216.414C179.31 215.739 179.508 214.918 179.508 213.95C179.508 212.982 179.317 212.161 178.936 211.486C178.555 210.811 178.056 210.313 177.44 209.99C176.824 209.653 176.157 209.484 175.438 209.484C174.705 209.484 174.03 209.653 173.414 209.99C172.813 210.313 172.329 210.811 171.962 211.486C171.595 212.161 171.412 212.982 171.412 213.95C171.412 214.933 171.588 215.761 171.94 216.436C172.307 217.111 172.791 217.617 173.392 217.954C173.993 218.277 174.653 218.438 175.372 218.438ZM185.264 209.66H183.02L185.132 204.666H186.562L185.264 209.66ZM191.001 209.902C191.353 209.213 191.851 208.677 192.497 208.296C193.157 207.915 193.956 207.724 194.895 207.724V209.792H194.367C192.123 209.792 191.001 211.009 191.001 213.444V220H188.999V207.944H191.001V209.902ZM202.178 207.746C203.219 207.746 204.128 207.973 204.906 208.428C205.698 208.883 206.284 209.455 206.666 210.144V207.944H208.69V220.264C208.69 221.364 208.455 222.339 207.986 223.19C207.516 224.055 206.842 224.73 205.962 225.214C205.096 225.698 204.084 225.94 202.926 225.94C201.342 225.94 200.022 225.566 198.966 224.818C197.91 224.07 197.286 223.051 197.096 221.76H199.076C199.296 222.493 199.75 223.08 200.44 223.52C201.129 223.975 201.958 224.202 202.926 224.202C204.026 224.202 204.92 223.857 205.61 223.168C206.314 222.479 206.666 221.511 206.666 220.264V217.734C206.27 218.438 205.683 219.025 204.906 219.494C204.128 219.963 203.219 220.198 202.178 220.198C201.107 220.198 200.132 219.934 199.252 219.406C198.386 218.878 197.704 218.137 197.206 217.184C196.707 216.231 196.458 215.145 196.458 213.928C196.458 212.696 196.707 211.618 197.206 210.694C197.704 209.755 198.386 209.029 199.252 208.516C200.132 208.003 201.107 207.746 202.178 207.746ZM206.666 213.95C206.666 213.041 206.482 212.249 206.116 211.574C205.749 210.899 205.25 210.386 204.62 210.034C204.004 209.667 203.322 209.484 202.574 209.484C201.826 209.484 201.144 209.66 200.528 210.012C199.912 210.364 199.42 210.877 199.054 211.552C198.687 212.227 198.504 213.019 198.504 213.928C198.504 214.852 198.687 215.659 199.054 216.348C199.42 217.023 199.912 217.543 200.528 217.91C201.144 218.262 201.826 218.438 202.574 218.438C203.322 218.438 204.004 218.262 204.62 217.91C205.25 217.543 205.749 217.023 206.116 216.348C206.482 215.659 206.666 214.859 206.666 213.95ZM211.325 213.928C211.325 212.696 211.574 211.618 212.073 210.694C212.572 209.755 213.254 209.029 214.119 208.516C214.999 208.003 215.974 207.746 217.045 207.746C218.101 207.746 219.018 207.973 219.795 208.428C220.572 208.883 221.152 209.455 221.533 210.144V207.944H223.557V220H221.533V217.756C221.137 218.46 220.543 219.047 219.751 219.516C218.974 219.971 218.064 220.198 217.023 220.198C215.952 220.198 214.984 219.934 214.119 219.406C213.254 218.878 212.572 218.137 212.073 217.184C211.574 216.231 211.325 215.145 211.325 213.928ZM221.533 213.95C221.533 213.041 221.35 212.249 220.983 211.574C220.616 210.899 220.118 210.386 219.487 210.034C218.871 209.667 218.189 209.484 217.441 209.484C216.693 209.484 216.011 209.66 215.395 210.012C214.779 210.364 214.288 210.877 213.921 211.552C213.554 212.227 213.371 213.019 213.371 213.928C213.371 214.852 213.554 215.659 213.921 216.348C214.288 217.023 214.779 217.543 215.395 217.91C216.011 218.262 216.693 218.438 217.441 218.438C218.189 218.438 218.871 218.262 219.487 217.91C220.118 217.543 220.616 217.023 220.983 216.348C221.35 215.659 221.533 214.859 221.533 213.95ZM232.814 207.724C234.281 207.724 235.469 208.171 236.378 209.066C237.287 209.946 237.742 211.222 237.742 212.894V220H235.762V213.18C235.762 211.977 235.461 211.061 234.86 210.43C234.259 209.785 233.437 209.462 232.396 209.462C231.34 209.462 230.497 209.792 229.866 210.452C229.25 211.112 228.942 212.073 228.942 213.334V220H226.94V207.944H228.942V209.66C229.338 209.044 229.873 208.567 230.548 208.23C231.237 207.893 231.993 207.724 232.814 207.724ZM242.046 205.986C241.665 205.986 241.342 205.854 241.078 205.59C240.814 205.326 240.682 205.003 240.682 204.622C240.682 204.241 240.814 203.918 241.078 203.654C241.342 203.39 241.665 203.258 242.046 203.258C242.413 203.258 242.721 203.39 242.97 203.654C243.234 203.918 243.366 204.241 243.366 204.622C243.366 205.003 243.234 205.326 242.97 205.59C242.721 205.854 242.413 205.986 242.046 205.986ZM243.014 207.944V220H241.012V207.944H243.014ZM250.694 220.198C249.77 220.198 248.942 220.044 248.208 219.736C247.475 219.413 246.896 218.973 246.47 218.416C246.045 217.844 245.81 217.191 245.766 216.458H247.834C247.893 217.059 248.172 217.551 248.67 217.932C249.184 218.313 249.851 218.504 250.672 218.504C251.435 218.504 252.036 218.335 252.476 217.998C252.916 217.661 253.136 217.235 253.136 216.722C253.136 216.194 252.902 215.805 252.432 215.556C251.963 215.292 251.237 215.035 250.254 214.786C249.36 214.551 248.626 214.317 248.054 214.082C247.497 213.833 247.013 213.473 246.602 213.004C246.206 212.52 246.008 211.889 246.008 211.112C246.008 210.496 246.192 209.931 246.558 209.418C246.925 208.905 247.446 208.501 248.12 208.208C248.795 207.9 249.565 207.746 250.43 207.746C251.765 207.746 252.843 208.083 253.664 208.758C254.486 209.433 254.926 210.357 254.984 211.53H252.982C252.938 210.899 252.682 210.393 252.212 210.012C251.758 209.631 251.142 209.44 250.364 209.44C249.646 209.44 249.074 209.594 248.648 209.902C248.223 210.21 248.01 210.613 248.01 211.112C248.01 211.508 248.135 211.838 248.384 212.102C248.648 212.351 248.971 212.557 249.352 212.718C249.748 212.865 250.291 213.033 250.98 213.224C251.846 213.459 252.55 213.693 253.092 213.928C253.635 214.148 254.097 214.485 254.478 214.94C254.874 215.395 255.08 215.989 255.094 216.722C255.094 217.382 254.911 217.976 254.544 218.504C254.178 219.032 253.657 219.45 252.982 219.758C252.322 220.051 251.56 220.198 250.694 220.198ZM263.905 207.724C264.814 207.724 265.635 207.922 266.369 208.318C267.102 208.699 267.674 209.279 268.085 210.056C268.51 210.833 268.723 211.779 268.723 212.894V220H266.743V213.18C266.743 211.977 266.442 211.061 265.841 210.43C265.239 209.785 264.418 209.462 263.377 209.462C262.321 209.462 261.477 209.792 260.847 210.452C260.231 211.112 259.923 212.073 259.923 213.334V220H257.921V203.72H259.923V209.66C260.319 209.044 260.861 208.567 261.551 208.23C262.255 207.893 263.039 207.724 263.905 207.724ZM282.346 218.152L286.086 207.944H288.22L283.49 220H281.158L276.428 207.944H278.584L282.346 218.152ZM289.442 213.928C289.442 212.696 289.691 211.618 290.19 210.694C290.689 209.755 291.371 209.029 292.236 208.516C293.116 208.003 294.091 207.746 295.162 207.746C296.218 207.746 297.135 207.973 297.912 208.428C298.689 208.883 299.269 209.455 299.65 210.144V207.944H301.674V220H299.65V217.756C299.254 218.46 298.66 219.047 297.868 219.516C297.091 219.971 296.181 220.198 295.14 220.198C294.069 220.198 293.101 219.934 292.236 219.406C291.371 218.878 290.689 218.137 290.19 217.184C289.691 216.231 289.442 215.145 289.442 213.928ZM299.65 213.95C299.65 213.041 299.467 212.249 299.1 211.574C298.733 210.899 298.235 210.386 297.604 210.034C296.988 209.667 296.306 209.484 295.558 209.484C294.81 209.484 294.128 209.66 293.512 210.012C292.896 210.364 292.405 210.877 292.038 211.552C291.671 212.227 291.488 213.019 291.488 213.928C291.488 214.852 291.671 215.659 292.038 216.348C292.405 217.023 292.896 217.543 293.512 217.91C294.128 218.262 294.81 218.438 295.558 218.438C296.306 218.438 296.988 218.262 297.604 217.91C298.235 217.543 298.733 217.023 299.1 216.348C299.467 215.659 299.65 214.859 299.65 213.95ZM321.307 207.944L314.047 225.676H311.979L314.355 219.868L309.493 207.944H311.715L315.499 217.712L319.239 207.944H321.307ZM322.571 213.928C322.571 212.696 322.82 211.618 323.319 210.694C323.818 209.755 324.5 209.029 325.365 208.516C326.245 208.003 327.22 207.746 328.291 207.746C329.347 207.746 330.264 207.973 331.041 208.428C331.818 208.883 332.398 209.455 332.779 210.144V207.944H334.803V220H332.779V217.756C332.383 218.46 331.789 219.047 330.997 219.516C330.22 219.971 329.31 220.198 328.269 220.198C327.198 220.198 326.23 219.934 325.365 219.406C324.5 218.878 323.818 218.137 323.319 217.184C322.82 216.231 322.571 215.145 322.571 213.928ZM332.779 213.95C332.779 213.041 332.596 212.249 332.229 211.574C331.862 210.899 331.364 210.386 330.733 210.034C330.117 209.667 329.435 209.484 328.687 209.484C327.939 209.484 327.257 209.66 326.641 210.012C326.025 210.364 325.534 210.877 325.167 211.552C324.8 212.227 324.617 213.019 324.617 213.928C324.617 214.852 324.8 215.659 325.167 216.348C325.534 217.023 326.025 217.543 326.641 217.91C327.257 218.262 327.939 218.438 328.687 218.438C329.435 218.438 330.117 218.262 330.733 217.91C331.364 217.543 331.862 217.023 332.229 216.348C332.596 215.659 332.779 214.859 332.779 213.95ZM344.06 207.724C345.527 207.724 346.715 208.171 347.624 209.066C348.534 209.946 348.988 211.222 348.988 212.894V220H347.008V213.18C347.008 211.977 346.708 211.061 346.106 210.43C345.505 209.785 344.684 209.462 343.642 209.462C342.586 209.462 341.743 209.792 341.112 210.452C340.496 211.112 340.188 212.073 340.188 213.334V220H338.186V207.944H340.188V209.66C340.584 209.044 341.12 208.567 341.794 208.23C342.484 207.893 343.239 207.724 344.06 207.724ZM357.23 207.746C358.272 207.746 359.181 207.973 359.958 208.428C360.75 208.883 361.337 209.455 361.718 210.144V207.944H363.742V220.264C363.742 221.364 363.508 222.339 363.038 223.19C362.569 224.055 361.894 224.73 361.014 225.214C360.149 225.698 359.137 225.94 357.978 225.94C356.394 225.94 355.074 225.566 354.018 224.818C352.962 224.07 352.339 223.051 352.148 221.76H354.128C354.348 222.493 354.803 223.08 355.492 223.52C356.182 223.975 357.01 224.202 357.978 224.202C359.078 224.202 359.973 223.857 360.662 223.168C361.366 222.479 361.718 221.511 361.718 220.264V217.734C361.322 218.438 360.736 219.025 359.958 219.494C359.181 219.963 358.272 220.198 357.23 220.198C356.16 220.198 355.184 219.934 354.304 219.406C353.439 218.878 352.757 218.137 352.258 217.184C351.76 216.231 351.51 215.145 351.51 213.928C351.51 212.696 351.76 211.618 352.258 210.694C352.757 209.755 353.439 209.029 354.304 208.516C355.184 208.003 356.16 207.746 357.23 207.746ZM361.718 213.95C361.718 213.041 361.535 212.249 361.168 211.574C360.802 210.899 360.303 210.386 359.672 210.034C359.056 209.667 358.374 209.484 357.626 209.484C356.878 209.484 356.196 209.66 355.58 210.012C354.964 210.364 354.473 210.877 354.106 211.552C353.74 212.227 353.556 213.019 353.556 213.928C353.556 214.852 353.74 215.659 354.106 216.348C354.473 217.023 354.964 217.543 355.58 217.91C356.196 218.262 356.878 218.438 357.626 218.438C358.374 218.438 359.056 218.262 359.672 217.91C360.303 217.543 360.802 217.023 361.168 216.348C361.535 215.659 361.718 214.859 361.718 213.95ZM368.16 205.986C367.778 205.986 367.456 205.854 367.192 205.59C366.928 205.326 366.796 205.003 366.796 204.622C366.796 204.241 366.928 203.918 367.192 203.654C367.456 203.39 367.778 203.258 368.16 203.258C368.526 203.258 368.834 203.39 369.084 203.654C369.348 203.918 369.48 204.241 369.48 204.622C369.48 205.003 369.348 205.326 369.084 205.59C368.834 205.854 368.526 205.986 368.16 205.986ZM369.128 207.944V220H367.126V207.944H369.128ZM374.542 203.72V220H372.54V203.72H374.542ZM378.988 205.986C378.606 205.986 378.284 205.854 378.02 205.59C377.756 205.326 377.624 205.003 377.624 204.622C377.624 204.241 377.756 203.918 378.02 203.654C378.284 203.39 378.606 203.258 378.988 203.258C379.354 203.258 379.662 203.39 379.912 203.654C380.176 203.918 380.308 204.241 380.308 204.622C380.308 205.003 380.176 205.326 379.912 205.59C379.662 205.854 379.354 205.986 378.988 205.986ZM379.956 207.944V220H377.954V207.944H379.956ZM390.1 220L385.37 214.676V220H383.368V203.72H385.37V213.29L390.012 207.944H392.806L387.13 213.95L392.828 220H390.1ZM28.728 243.986C28.3467 243.986 28.024 243.854 27.76 243.59C27.496 243.326 27.364 243.003 27.364 242.622C27.364 242.241 27.496 241.918 27.76 241.654C28.024 241.39 28.3467 241.258 28.728 241.258C29.0947 241.258 29.4027 241.39 29.652 241.654C29.916 241.918 30.048 242.241 30.048 242.622C30.048 243.003 29.916 243.326 29.652 243.59C29.4027 243.854 29.0947 243.986 28.728 243.986ZM29.696 245.944V258H27.694V245.944H29.696ZM34.6041 256.35H40.5221V258H32.3161V256.35L38.1681 247.572H32.3601V245.944H40.4781V247.572L34.6041 256.35ZM45.1218 241.72V258H43.1198V241.72H45.1218ZM47.7858 251.928C47.7858 250.696 48.0352 249.618 48.5338 248.694C49.0325 247.755 49.7145 247.029 50.5798 246.516C51.4598 246.003 52.4352 245.746 53.5058 245.746C54.5618 245.746 55.4785 245.973 56.2558 246.428C57.0332 246.883 57.6125 247.455 57.9938 248.144V245.944H60.0178V258H57.9938V255.756C57.5978 256.46 57.0038 257.047 56.2118 257.516C55.4345 257.971 54.5252 258.198 53.4838 258.198C52.4132 258.198 51.4452 257.934 50.5798 257.406C49.7145 256.878 49.0325 256.137 48.5338 255.184C48.0352 254.231 47.7858 253.145 47.7858 251.928ZM57.9938 251.95C57.9938 251.041 57.8105 250.249 57.4438 249.574C57.0772 248.899 56.5785 248.386 55.9478 248.034C55.3318 247.667 54.6498 247.484 53.9018 247.484C53.1538 247.484 52.4718 247.66 51.8558 248.012C51.2398 248.364 50.7485 248.877 50.3818 249.552C50.0152 250.227 49.8318 251.019 49.8318 251.928C49.8318 252.852 50.0152 253.659 50.3818 254.348C50.7485 255.023 51.2398 255.543 51.8558 255.91C52.4718 256.262 53.1538 256.438 53.9018 256.438C54.6498 256.438 55.3318 256.262 55.9478 255.91C56.5785 255.543 57.0772 255.023 57.4438 254.348C57.8105 253.659 57.9938 252.859 57.9938 251.95ZM67.669 258.198C66.745 258.198 65.9164 258.044 65.183 257.736C64.4497 257.413 63.8704 256.973 63.445 256.416C63.0197 255.844 62.785 255.191 62.741 254.458H64.809C64.8677 255.059 65.1464 255.551 65.645 255.932C66.1584 256.313 66.8257 256.504 67.647 256.504C68.4097 256.504 69.011 256.335 69.451 255.998C69.891 255.661 70.111 255.235 70.111 254.722C70.111 254.194 69.8764 253.805 69.407 253.556C68.9377 253.292 68.2117 253.035 67.229 252.786C66.3344 252.551 65.601 252.317 65.029 252.082C64.4717 251.833 63.9877 251.473 63.577 251.004C63.181 250.52 62.983 249.889 62.983 249.112C62.983 248.496 63.1664 247.931 63.533 247.418C63.8997 246.905 64.4204 246.501 65.095 246.208C65.7697 245.9 66.5397 245.746 67.405 245.746C68.7397 245.746 69.8177 246.083 70.639 246.758C71.4604 247.433 71.9004 248.357 71.959 249.53H69.957C69.913 248.899 69.6564 248.393 69.187 248.012C68.7324 247.631 68.1164 247.44 67.339 247.44C66.6204 247.44 66.0484 247.594 65.623 247.902C65.1977 248.21 64.985 248.613 64.985 249.112C64.985 249.508 65.1097 249.838 65.359 250.102C65.623 250.351 65.9457 250.557 66.327 250.718C66.723 250.865 67.2657 251.033 67.955 251.224C68.8204 251.459 69.5244 251.693 70.067 251.928C70.6097 252.148 71.0717 252.485 71.453 252.94C71.849 253.395 72.0544 253.989 72.069 254.722C72.069 255.382 71.8857 255.976 71.519 256.504C71.1524 257.032 70.6317 257.45 69.957 257.758C69.297 258.051 68.5344 258.198 67.669 258.198ZM80.8792 245.724C81.7885 245.724 82.6098 245.922 83.3432 246.318C84.0765 246.699 84.6485 247.279 85.0592 248.056C85.4845 248.833 85.6972 249.779 85.6972 250.894V258H83.7172V251.18C83.7172 249.977 83.4165 249.061 82.8152 248.43C82.2138 247.785 81.3925 247.462 80.3512 247.462C79.2952 247.462 78.4518 247.792 77.8212 248.452C77.2052 249.112 76.8972 250.073 76.8972 251.334V258H74.8952V241.72H76.8972V247.66C77.2932 247.044 77.8358 246.567 78.5252 246.23C79.2292 245.893 80.0138 245.724 80.8792 245.724ZM94.8414 245.724C96.3081 245.724 97.4961 246.171 98.4054 247.066C99.3148 247.946 99.7694 249.222 99.7694 250.894V258H97.7894V251.18C97.7894 249.977 97.4888 249.061 96.8874 248.43C96.2861 247.785 95.4648 247.462 94.4234 247.462C93.3674 247.462 92.5241 247.792 91.8934 248.452C91.2774 249.112 90.9694 250.073 90.9694 251.334V258H88.9674V245.944H90.9694V247.66C91.3654 247.044 91.9008 246.567 92.5754 246.23C93.2648 245.893 94.0201 245.724 94.8414 245.724ZM104.074 243.986C103.692 243.986 103.37 243.854 103.106 243.59C102.842 243.326 102.71 243.003 102.71 242.622C102.71 242.241 102.842 241.918 103.106 241.654C103.37 241.39 103.692 241.258 104.074 241.258C104.44 241.258 104.748 241.39 104.998 241.654C105.262 241.918 105.394 242.241 105.394 242.622C105.394 243.003 105.262 243.326 104.998 243.59C104.748 243.854 104.44 243.986 104.074 243.986ZM105.042 245.944V258H103.04V245.944H105.042ZM113.571 251.928C113.571 250.696 113.82 249.618 114.319 248.694C114.818 247.755 115.5 247.029 116.365 246.516C117.245 246.003 118.228 245.746 119.313 245.746C120.252 245.746 121.124 245.966 121.931 246.406C122.738 246.831 123.354 247.396 123.779 248.1V241.72H125.803V258H123.779V255.734C123.383 256.453 122.796 257.047 122.019 257.516C121.242 257.971 120.332 258.198 119.291 258.198C118.22 258.198 117.245 257.934 116.365 257.406C115.5 256.878 114.818 256.137 114.319 255.184C113.82 254.231 113.571 253.145 113.571 251.928ZM123.779 251.95C123.779 251.041 123.596 250.249 123.229 249.574C122.862 248.899 122.364 248.386 121.733 248.034C121.117 247.667 120.435 247.484 119.687 247.484C118.939 247.484 118.257 247.66 117.641 248.012C117.025 248.364 116.534 248.877 116.167 249.552C115.8 250.227 115.617 251.019 115.617 251.928C115.617 252.852 115.8 253.659 116.167 254.348C116.534 255.023 117.025 255.543 117.641 255.91C118.257 256.262 118.939 256.438 119.687 256.438C120.435 256.438 121.117 256.262 121.733 255.91C122.364 255.543 122.862 255.023 123.229 254.348C123.596 253.659 123.779 252.859 123.779 251.95ZM128.438 251.928C128.438 250.696 128.688 249.618 129.186 248.694C129.685 247.755 130.367 247.029 131.232 246.516C132.112 246.003 133.088 245.746 134.158 245.746C135.214 245.746 136.131 245.973 136.908 246.428C137.686 246.883 138.265 247.455 138.646 248.144V245.944H140.67V258H138.646V255.756C138.25 256.46 137.656 257.047 136.864 257.516C136.087 257.971 135.178 258.198 134.136 258.198C133.066 258.198 132.098 257.934 131.232 257.406C130.367 256.878 129.685 256.137 129.186 255.184C128.688 254.231 128.438 253.145 128.438 251.928ZM138.646 251.95C138.646 251.041 138.463 250.249 138.096 249.574C137.73 248.899 137.231 248.386 136.6 248.034C135.984 247.667 135.302 247.484 134.554 247.484C133.806 247.484 133.124 247.66 132.508 248.012C131.892 248.364 131.401 248.877 131.034 249.552C130.668 250.227 130.484 251.019 130.484 251.928C130.484 252.852 130.668 253.659 131.034 254.348C131.401 255.023 131.892 255.543 132.508 255.91C133.124 256.262 133.806 256.438 134.554 256.438C135.302 256.438 135.984 256.262 136.6 255.91C137.231 255.543 137.73 255.023 138.096 254.348C138.463 253.659 138.646 252.859 138.646 251.95ZM148.541 256.152L152.281 245.944H154.415L149.685 258H147.353L142.623 245.944H144.779L148.541 256.152ZM161.643 258.198C160.514 258.198 159.487 257.941 158.563 257.428C157.654 256.915 156.935 256.189 156.407 255.25C155.894 254.297 155.637 253.197 155.637 251.95C155.637 250.718 155.901 249.633 156.429 248.694C156.972 247.741 157.705 247.015 158.629 246.516C159.553 246.003 160.587 245.746 161.731 245.746C162.875 245.746 163.909 246.003 164.833 246.516C165.757 247.015 166.483 247.733 167.011 248.672C167.554 249.611 167.825 250.703 167.825 251.95C167.825 253.197 167.547 254.297 166.989 255.25C166.447 256.189 165.706 256.915 164.767 257.428C163.829 257.941 162.787 258.198 161.643 258.198ZM161.643 256.438C162.362 256.438 163.037 256.269 163.667 255.932C164.298 255.595 164.804 255.089 165.185 254.414C165.581 253.739 165.779 252.918 165.779 251.95C165.779 250.982 165.589 250.161 165.207 249.486C164.826 248.811 164.327 248.313 163.711 247.99C163.095 247.653 162.428 247.484 161.709 247.484C160.976 247.484 160.301 247.653 159.685 247.99C159.084 248.313 158.6 248.811 158.233 249.486C157.867 250.161 157.683 250.982 157.683 251.95C157.683 252.933 157.859 253.761 158.211 254.436C158.578 255.111 159.062 255.617 159.663 255.954C160.265 256.277 160.925 256.438 161.643 256.438ZM184.956 245.724C185.894 245.724 186.73 245.922 187.464 246.318C188.197 246.699 188.776 247.279 189.202 248.056C189.627 248.833 189.84 249.779 189.84 250.894V258H187.86V251.18C187.86 249.977 187.559 249.061 186.958 248.43C186.371 247.785 185.572 247.462 184.56 247.462C183.518 247.462 182.69 247.799 182.074 248.474C181.458 249.134 181.15 250.095 181.15 251.356V258H179.17V251.18C179.17 249.977 178.869 249.061 178.268 248.43C177.681 247.785 176.882 247.462 175.87 247.462C174.828 247.462 174 247.799 173.384 248.474C172.768 249.134 172.46 250.095 172.46 251.356V258H170.458V245.944H172.46V247.682C172.856 247.051 173.384 246.567 174.044 246.23C174.718 245.893 175.459 245.724 176.266 245.724C177.278 245.724 178.172 245.951 178.95 246.406C179.727 246.861 180.306 247.528 180.688 248.408C181.025 247.557 181.582 246.897 182.36 246.428C183.137 245.959 184.002 245.724 184.956 245.724ZM209.989 251.51C209.989 251.891 209.967 252.295 209.923 252.72H200.287C200.36 253.908 200.764 254.839 201.497 255.514C202.245 256.174 203.147 256.504 204.203 256.504C205.068 256.504 205.787 256.306 206.359 255.91C206.946 255.499 207.356 254.957 207.591 254.282H209.747C209.424 255.441 208.779 256.387 207.811 257.12C206.843 257.839 205.64 258.198 204.203 258.198C203.059 258.198 202.032 257.941 201.123 257.428C200.228 256.915 199.524 256.189 199.011 255.25C198.498 254.297 198.241 253.197 198.241 251.95C198.241 250.703 198.49 249.611 198.989 248.672C199.488 247.733 200.184 247.015 201.079 246.516C201.988 246.003 203.03 245.746 204.203 245.746C205.347 245.746 206.359 245.995 207.239 246.494C208.119 246.993 208.794 247.682 209.263 248.562C209.747 249.427 209.989 250.41 209.989 251.51ZM207.921 251.092C207.921 250.329 207.752 249.677 207.415 249.134C207.078 248.577 206.616 248.159 206.029 247.88C205.457 247.587 204.819 247.44 204.115 247.44C203.103 247.44 202.238 247.763 201.519 248.408C200.815 249.053 200.412 249.948 200.309 251.092H207.921ZM215.074 247.594V254.7C215.074 255.287 215.198 255.705 215.448 255.954C215.697 256.189 216.13 256.306 216.745 256.306H218.22V258H216.416C215.301 258 214.465 257.743 213.908 257.23C213.35 256.717 213.072 255.873 213.072 254.7V247.594H211.51V245.944H213.072V242.908H215.074V245.944H218.22V247.594H215.074ZM221.679 243.986C221.298 243.986 220.975 243.854 220.711 243.59C220.447 243.326 220.315 243.003 220.315 242.622C220.315 242.241 220.447 241.918 220.711 241.654C220.975 241.39 221.298 241.258 221.679 241.258C222.046 241.258 222.354 241.39 222.603 241.654C222.867 241.918 222.999 242.241 222.999 242.622C222.999 243.003 222.867 243.326 222.603 243.59C222.354 243.854 222.046 243.986 221.679 243.986ZM222.647 245.944V258H220.645V245.944H222.647ZM231.933 245.724C233.4 245.724 234.588 246.171 235.497 247.066C236.407 247.946 236.861 249.222 236.861 250.894V258H234.881V251.18C234.881 249.977 234.581 249.061 233.979 248.43C233.378 247.785 232.557 247.462 231.515 247.462C230.459 247.462 229.616 247.792 228.985 248.452C228.369 249.112 228.061 250.073 228.061 251.334V258H226.059V245.944H228.061V247.66C228.457 247.044 228.993 246.567 229.667 246.23C230.357 245.893 231.112 245.724 231.933 245.724ZM245.104 245.746C246.145 245.746 247.054 245.973 247.832 246.428C248.624 246.883 249.21 247.455 249.592 248.144V245.944H251.616V258.264C251.616 259.364 251.381 260.339 250.912 261.19C250.442 262.055 249.768 262.73 248.888 263.214C248.022 263.698 247.01 263.94 245.852 263.94C244.268 263.94 242.948 263.566 241.892 262.818C240.836 262.07 240.212 261.051 240.022 259.76H242.002C242.222 260.493 242.676 261.08 243.366 261.52C244.055 261.975 244.884 262.202 245.852 262.202C246.952 262.202 247.846 261.857 248.536 261.168C249.24 260.479 249.592 259.511 249.592 258.264V255.734C249.196 256.438 248.609 257.025 247.832 257.494C247.054 257.963 246.145 258.198 245.104 258.198C244.033 258.198 243.058 257.934 242.178 257.406C241.312 256.878 240.63 256.137 240.132 255.184C239.633 254.231 239.384 253.145 239.384 251.928C239.384 250.696 239.633 249.618 240.132 248.694C240.63 247.755 241.312 247.029 242.178 246.516C243.058 246.003 244.033 245.746 245.104 245.746ZM249.592 251.95C249.592 251.041 249.408 250.249 249.042 249.574C248.675 248.899 248.176 248.386 247.546 248.034C246.93 247.667 246.248 247.484 245.5 247.484C244.752 247.484 244.07 247.66 243.454 248.012C242.838 248.364 242.346 248.877 241.98 249.552C241.613 250.227 241.43 251.019 241.43 251.928C241.43 252.852 241.613 253.659 241.98 254.348C242.346 255.023 242.838 255.543 243.454 255.91C244.07 256.262 244.752 256.438 245.5 256.438C246.248 256.438 246.93 256.262 247.546 255.91C248.176 255.543 248.675 255.023 249.042 254.348C249.408 253.659 249.592 252.859 249.592 251.95ZM255.637 258.132C255.255 258.132 254.933 258 254.669 257.736C254.405 257.472 254.273 257.149 254.273 256.768C254.273 256.387 254.405 256.064 254.669 255.8C254.933 255.536 255.255 255.404 255.637 255.404C256.003 255.404 256.311 255.536 256.561 255.8C256.825 256.064 256.957 256.387 256.957 256.768C256.957 257.149 256.825 257.472 256.561 257.736C256.311 258 256.003 258.132 255.637 258.132Z" fill="white"/>
<path d="M24.4693 427.917C23.4426 427.917 22.5186 427.741 21.6973 427.389C20.8759 427.022 20.2306 426.509 19.7613 425.849C19.2919 425.189 19.0573 424.419 19.0573 423.539H21.7413C21.7999 424.199 22.0566 424.741 22.5113 425.167C22.9806 425.592 23.6333 425.805 24.4693 425.805C25.3346 425.805 26.0093 425.599 26.4933 425.189C26.9773 424.763 27.2193 424.221 27.2193 423.561C27.2193 423.047 27.0653 422.629 26.7573 422.307C26.4639 421.984 26.0899 421.735 25.6353 421.559C25.1953 421.383 24.5793 421.192 23.7873 420.987C22.7899 420.723 21.9759 420.459 21.3453 420.195C20.7293 419.916 20.2013 419.491 19.7613 418.919C19.3213 418.347 19.1013 417.584 19.1013 416.631C19.1013 415.751 19.3213 414.981 19.7613 414.321C20.2013 413.661 20.8173 413.155 21.6093 412.803C22.4013 412.451 23.3179 412.275 24.3593 412.275C25.8406 412.275 27.0506 412.649 27.9893 413.397C28.9426 414.13 29.4706 415.142 29.5733 416.433H26.8013C26.7573 415.875 26.4933 415.399 26.0093 415.003C25.5253 414.607 24.8873 414.409 24.0953 414.409C23.3766 414.409 22.7899 414.592 22.3353 414.959C21.8806 415.325 21.6533 415.853 21.6533 416.543C21.6533 417.012 21.7926 417.401 22.0713 417.709C22.3646 418.002 22.7313 418.237 23.1713 418.413C23.6113 418.589 24.2126 418.779 24.9753 418.985C25.9873 419.263 26.8086 419.542 27.4393 419.821C28.0846 420.099 28.6273 420.532 29.0673 421.119C29.5219 421.691 29.7493 422.461 29.7493 423.429C29.7493 424.206 29.5366 424.939 29.1113 425.629C28.7006 426.318 28.0919 426.875 27.2853 427.301C26.4933 427.711 25.5546 427.917 24.4693 427.917ZM35.6346 417.687V424.397C35.6346 424.851 35.7373 425.181 35.9426 425.387C36.1626 425.577 36.5293 425.673 37.0426 425.673H38.5826V427.763H36.6026C35.4733 427.763 34.6079 427.499 34.0066 426.971C33.4053 426.443 33.1046 425.585 33.1046 424.397V417.687H31.6746V415.641H33.1046V412.627H35.6346V415.641H38.5826V417.687H35.6346ZM52.0041 421.405C52.0041 421.859 51.9748 422.27 51.9161 422.637H42.6541C42.7275 423.605 43.0868 424.382 43.7321 424.969C44.3775 425.555 45.1695 425.849 46.1081 425.849C47.4575 425.849 48.4108 425.284 48.9681 424.155H51.6741C51.3075 425.269 50.6401 426.186 49.6721 426.905C48.7188 427.609 47.5308 427.961 46.1081 427.961C44.9495 427.961 43.9081 427.704 42.9841 427.191C42.0748 426.663 41.3561 425.929 40.8281 424.991C40.3148 424.037 40.0581 422.937 40.0581 421.691C40.0581 420.444 40.3075 419.351 40.8061 418.413C41.3195 417.459 42.0308 416.726 42.9401 416.213C43.8641 415.699 44.9201 415.443 46.1081 415.443C47.2521 415.443 48.2715 415.692 49.1661 416.191C50.0608 416.689 50.7575 417.393 51.2561 418.303C51.7548 419.197 52.0041 420.231 52.0041 421.405ZM49.3861 420.613C49.3715 419.689 49.0415 418.948 48.3961 418.391C47.7508 417.833 46.9515 417.555 45.9981 417.555C45.1328 417.555 44.3921 417.833 43.7761 418.391C43.1601 418.933 42.7935 419.674 42.6761 420.613H49.3861ZM59.1583 425.519L62.5903 415.641H65.2523L60.6323 427.763H57.6403L53.0423 415.641H55.7263L59.1583 425.519ZM78.258 421.405C78.258 421.859 78.2287 422.27 78.17 422.637H68.908C68.9814 423.605 69.3407 424.382 69.986 424.969C70.6314 425.555 71.4234 425.849 72.362 425.849C73.7114 425.849 74.6647 425.284 75.222 424.155H77.928C77.5614 425.269 76.894 426.186 75.926 426.905C74.9727 427.609 73.7847 427.961 72.362 427.961C71.2034 427.961 70.162 427.704 69.238 427.191C68.3287 426.663 67.61 425.929 67.082 424.991C66.5687 424.037 66.312 422.937 66.312 421.691C66.312 420.444 66.5614 419.351 67.06 418.413C67.5734 417.459 68.2847 416.726 69.194 416.213C70.118 415.699 71.174 415.443 72.362 415.443C73.506 415.443 74.5254 415.692 75.42 416.191C76.3147 416.689 77.0114 417.393 77.51 418.303C78.0087 419.197 78.258 420.231 78.258 421.405ZM75.64 420.613C75.6254 419.689 75.2954 418.948 74.65 418.391C74.0047 417.833 73.2054 417.555 72.252 417.555C71.3867 417.555 70.646 417.833 70.03 418.391C69.414 418.933 69.0474 419.674 68.93 420.613H75.64ZM94.779 412.473V423.495C94.779 424.859 94.361 425.937 93.525 426.729C92.7037 427.521 91.6183 427.917 90.269 427.917C88.9197 427.917 87.827 427.521 86.991 426.729C86.1697 425.937 85.759 424.859 85.759 423.495H88.289C88.3037 424.169 88.4723 424.705 88.795 425.101C89.1323 425.497 89.6237 425.695 90.269 425.695C90.9143 425.695 91.4057 425.497 91.743 425.101C92.0803 424.69 92.249 424.155 92.249 423.495V412.473H94.779ZM104.117 427.961C102.973 427.961 101.939 427.704 101.015 427.191C100.091 426.663 99.365 425.929 98.837 424.991C98.309 424.037 98.045 422.937 98.045 421.691C98.045 420.459 98.3163 419.366 98.859 418.413C99.4017 417.459 100.142 416.726 101.081 416.213C102.02 415.699 103.068 415.443 104.227 415.443C105.386 415.443 106.434 415.699 107.373 416.213C108.312 416.726 109.052 417.459 109.595 418.413C110.138 419.366 110.409 420.459 110.409 421.691C110.409 422.923 110.13 424.015 109.573 424.969C109.016 425.922 108.253 426.663 107.285 427.191C106.332 427.704 105.276 427.961 104.117 427.961ZM104.117 425.783C104.762 425.783 105.364 425.629 105.921 425.321C106.493 425.013 106.955 424.551 107.307 423.935C107.659 423.319 107.835 422.571 107.835 421.691C107.835 420.811 107.666 420.07 107.329 419.469C106.992 418.853 106.544 418.391 105.987 418.083C105.43 417.775 104.828 417.621 104.183 417.621C103.538 417.621 102.936 417.775 102.379 418.083C101.836 418.391 101.404 418.853 101.081 419.469C100.758 420.07 100.597 420.811 100.597 421.691C100.597 422.996 100.927 424.008 101.587 424.727C102.262 425.431 103.105 425.783 104.117 425.783ZM115.396 417.445C115.822 416.858 116.401 416.381 117.134 416.015C117.882 415.633 118.711 415.443 119.62 415.443C120.691 415.443 121.659 415.699 122.524 416.213C123.39 416.726 124.072 417.459 124.57 418.413C125.069 419.351 125.318 420.429 125.318 421.647C125.318 422.864 125.069 423.957 124.57 424.925C124.072 425.878 123.382 426.626 122.502 427.169C121.637 427.697 120.676 427.961 119.62 427.961C118.682 427.961 117.846 427.777 117.112 427.411C116.394 427.044 115.822 426.575 115.396 426.003V427.763H112.888V411.483H115.396V417.445ZM122.766 421.647C122.766 420.811 122.59 420.092 122.238 419.491C121.901 418.875 121.446 418.413 120.874 418.105C120.317 417.782 119.716 417.621 119.07 417.621C118.44 417.621 117.838 417.782 117.266 418.105C116.709 418.427 116.254 418.897 115.902 419.513C115.565 420.129 115.396 420.855 115.396 421.691C115.396 422.527 115.565 423.26 115.902 423.891C116.254 424.507 116.709 424.976 117.266 425.299C117.838 425.621 118.44 425.783 119.07 425.783C119.716 425.783 120.317 425.621 120.874 425.299C121.446 424.961 121.901 424.477 122.238 423.847C122.59 423.216 122.766 422.483 122.766 421.647ZM132.198 427.961C131.245 427.961 130.387 427.792 129.624 427.455C128.876 427.103 128.282 426.633 127.842 426.047C127.402 425.445 127.168 424.778 127.138 424.045H129.734C129.778 424.558 130.02 424.991 130.46 425.343C130.915 425.68 131.48 425.849 132.154 425.849C132.858 425.849 133.401 425.717 133.782 425.453C134.178 425.174 134.376 424.822 134.376 424.397C134.376 423.942 134.156 423.605 133.716 423.385C133.291 423.165 132.609 422.923 131.67 422.659C130.761 422.409 130.02 422.167 129.448 421.933C128.876 421.698 128.378 421.339 127.952 420.855C127.542 420.371 127.336 419.733 127.336 418.941C127.336 418.295 127.527 417.709 127.908 417.181C128.29 416.638 128.832 416.213 129.536 415.905C130.255 415.597 131.076 415.443 132 415.443C133.379 415.443 134.486 415.795 135.322 416.499C136.173 417.188 136.628 418.134 136.686 419.337H134.178C134.134 418.794 133.914 418.361 133.518 418.039C133.122 417.716 132.587 417.555 131.912 417.555C131.252 417.555 130.746 417.679 130.394 417.929C130.042 418.178 129.866 418.508 129.866 418.919C129.866 419.241 129.984 419.513 130.218 419.733C130.453 419.953 130.739 420.129 131.076 420.261C131.414 420.378 131.912 420.532 132.572 420.723C133.452 420.957 134.171 421.199 134.728 421.449C135.3 421.683 135.792 422.035 136.202 422.505C136.613 422.974 136.826 423.597 136.84 424.375C136.84 425.064 136.65 425.68 136.268 426.223C135.887 426.765 135.344 427.191 134.64 427.499C133.951 427.807 133.137 427.961 132.198 427.961Z" fill="white"/>
<path d="M394.996 473.924H410.873V511.339H368.325V497.167H394.996V473.924Z" fill="white"/>
<path d="M23.9531 6.42188C25.0469 6.42188 25.5938 6.64063 25.5938 7.07812C25.5938 7.26562 25.4219 7.42187 25.0781 7.54688C22.2031 8.70313 20.7656 10.9531 20.7656 14.2969C21.2031 14.2344 21.5156 14.2031 21.7031 14.2031C25.4531 14.2031 27.3281 16.0781 27.3281 19.8281C27.3281 23.5469 25.4531 25.4062 21.7031 25.4062C17.3594 25.4062 15.1875 23.0156 15.1875 18.2344C15.1875 13.0781 17.2656 9.375 21.4219 7.125C22.2969 6.65625 23.1406 6.42188 23.9531 6.42188ZM11.7188 6.5625C12.8125 6.5625 13.3594 6.78125 13.3594 7.21875C13.3594 7.40625 13.1875 7.5625 12.8438 7.6875C9.96875 8.84375 8.53125 11.0938 8.53125 14.4375C8.96875 14.375 9.28125 14.3438 9.46875 14.3438C13.2188 14.3438 15.0938 16.2188 15.0938 19.9688C15.0938 23.6875 13.2188 25.5469 9.46875 25.5469C5.125 25.5469 2.95312 23.1562 2.95312 18.375C2.95312 13.2188 5.03125 9.51562 9.1875 7.26562C10.0625 6.79688 10.9062 6.5625 11.7188 6.5625Z" fill="#00DAF7"/>
</svg>
